<svg width="99" height="142" viewBox="0 0 99 142" fill="none" xmlns="http://www.w3.org/2000/svg">
<path d="M3.35693 97.3403L3.26416 97.0093C2.57998 94.5701 2.37746 91.0469 2.69287 86.6343C3.00532 82.2633 3.81194 77.1911 5.02393 71.7437C7.44821 60.8474 11.4567 48.6144 16.1938 37.7603L16.2446 37.6431L16.2837 37.521C21.4926 21.2089 27.1729 12.6868 32.689 8.20264C38.1051 3.79985 43.6695 3.03861 49.4292 3.03857C55.0165 3.03857 60.6312 4.24271 66.1421 8.9458C71.7437 13.7265 77.4626 22.3126 82.7329 37.5757L82.7651 37.6694L82.8052 37.7603C87.5907 48.7254 91.4927 60.6093 93.8345 71.2964C96.1975 82.0805 96.8935 91.3067 95.5649 97.1274L95.5024 97.4028V97.6841C95.5024 108.236 90.0382 118.565 81.4146 126.317C72.7993 134.062 61.236 139.039 49.4292 139.039C37.6225 139.038 26.06 134.062 17.4448 126.317C8.82116 118.565 3.35693 108.236 3.35693 97.6841V97.3403Z" fill="#8BE16D" stroke="black" stroke-width="5"/>
<path d="M22.9041 90.7551L22.8611 90.5784C22.4541 88.9223 22.3384 86.5601 22.5212 83.6399C22.7027 80.7423 23.171 77.387 23.8718 73.7913C25.2737 66.5989 27.5908 58.5291 30.3279 51.3704L30.3523 51.3059L30.3708 51.2395C33.3848 40.4656 36.6772 34.8233 39.8699 31.8606C42.9744 28.9797 46.1359 28.4934 49.4128 28.4934C52.5737 28.4934 55.7693 29.2629 58.9382 32.3499C62.1798 35.5077 65.4943 41.1881 68.5437 51.2688L68.5583 51.3206L68.5779 51.3704C71.3427 58.6016 73.5984 66.4416 74.9529 73.4973C76.3171 80.6042 76.7315 86.7376 75.9509 90.6418L75.9216 90.7874V90.9368C75.9215 98.0039 72.7177 104.858 67.7458 109.96C62.7715 115.065 56.1389 118.302 49.4128 118.302C42.6868 118.302 36.0543 115.065 31.0798 109.96C26.1079 104.858 22.9042 98.0039 22.9041 90.9368V90.7551Z" fill="#FEF181" stroke="black" stroke-width="3"/>
</svg>
