<svg width="83" height="78" viewBox="0 0 83 78" fill="none" xmlns="http://www.w3.org/2000/svg">
<path d="M43.5 1.5C63.2912 1.5 81.5 16.5676 81.5 36C81.5 45.7706 76.9269 55.9215 69.8096 63.6465C62.6909 71.3728 53.1908 76.5 43.5 76.5C33.8431 76.5 23.3336 70.6565 15.1709 62.126C7.01212 53.5995 1.5 42.7016 1.5 33C1.5 23.4142 6.89517 15.5783 14.9346 10.0752C22.9868 4.56326 33.5614 1.5 43.5 1.5Z" fill="#5DC454" stroke="#2D7735" stroke-width="3"/>
<path d="M64.5 37.3077C64.5 48.8349 53.9336 61 42.6084 61C31.2833 61 18.5 47.1426 18.5 35.6154C18.5 24.0882 31.2833 17 42.6084 17C53.9336 17 64.5 25.7805 64.5 37.3077Z" fill="#7ECC55"/>
<path d="M46.7569 59.153L36.2569 57.653L37.2569 50.653C37.2569 50.653 34.0929 45.5361 36.2569 44.153C38.4021 42.7819 41.7569 47.653 41.7569 47.653C41.7569 47.653 43.7025 42.0093 45.7569 43.153C47.3298 44.0286 46.7569 47.653 46.7569 47.653C46.7569 47.653 49.4265 46.8343 50.7569 47.653C53.2953 49.2151 46.7569 54.153 46.7569 54.153V59.153Z" fill="#9DD96E"/>
<path d="M21.4771 36.9985L25.1799 27.0592L31.8061 29.5278C31.8061 29.5278 37.4796 27.5267 38.3699 29.9358C39.2525 32.3238 33.7784 34.5637 33.7784 34.5637C33.7784 34.5637 38.8779 37.6672 37.3227 39.4307C36.1321 40.7809 32.713 39.4489 32.713 39.4489C32.713 39.4489 32.9441 42.2316 31.8607 43.357C29.7936 45.5043 26.3623 38.0639 26.3623 38.0639L21.4771 36.9985Z" fill="#9DD96E"/>
<path d="M52.9658 22.7895L60.3869 30.3675L55.3349 35.315C55.3349 35.315 54.7333 41.3009 52.1744 41.0822C49.6377 40.8654 49.9383 34.9585 49.9383 34.9585C49.9383 34.9585 44.9609 38.2541 44.0261 36.0967C43.3104 34.4448 45.9699 31.9168 45.9699 31.9168C45.9699 31.9168 43.3531 30.9425 42.7952 29.4834C41.7308 26.6994 49.9241 26.7579 49.9241 26.7579L52.9658 22.7895Z" fill="#9DD96E"/>
</svg>
