<svg width="134" height="132" viewBox="0 0 134 132" fill="none" xmlns="http://www.w3.org/2000/svg">
<path d="M43.418 3C45.5108 5.07714 48.6002 6.39351 52.0488 6.39355C55.4977 6.39355 58.5878 5.07736 60.6807 3H74.4482C75.0029 7.97142 79.8768 11.8594 85.8086 11.8594C91.7403 11.8593 96.6133 7.97135 97.168 3H130.679V77.0869C125.686 78.1336 121.979 82.0002 121.979 86.6123C121.979 91.2243 125.686 95.09 130.679 96.1367V128.589H103.141C101.447 124.997 97.3493 122.462 92.5605 122.462C87.7717 122.462 83.6735 124.997 81.9795 128.589H3V115.003C5.7451 113.212 7.51855 110.379 7.51855 107.189C7.51853 103.999 5.74537 101.166 3 99.375V63.8809C5.74485 62.09 7.51842 59.2579 7.51855 56.0684C7.51855 52.8785 5.74528 50.0448 3 48.2539V3H43.418ZM111.71 103.782C110.102 101.669 106.64 101.599 103.976 103.625C101.312 105.651 100.455 109.007 102.062 111.12C103.67 113.233 107.133 113.305 109.797 111.278C112.461 109.252 113.317 105.896 111.71 103.782ZM59.5605 81.5859C55.4189 78.236 48.712 79.6608 44.5801 84.7686C40.4481 89.8766 40.456 96.7337 44.5977 100.084C48.7393 103.434 55.4461 102.009 59.5781 96.9014C63.7101 91.7932 63.7023 84.9362 59.5605 81.5859ZM95.1328 55.5859C90.2496 55.5859 86.291 59.4008 86.291 64.1064C86.2913 68.8118 90.2498 72.626 95.1328 72.626C100.016 72.6258 103.974 68.8118 103.975 64.1064C103.975 59.4009 100.016 55.5861 95.1328 55.5859ZM78.1592 44.624C77.39 42.0585 75.0801 40.4838 73 41.1074C70.9198 41.7311 69.8568 44.3173 70.626 46.8828C71.3952 49.4481 73.7052 51.0218 75.7852 50.3984C77.8653 49.7748 78.9283 47.1895 78.1592 44.624ZM34.0439 16.6816C27.7402 16.6816 22.6299 21.0724 22.6299 26.4883C22.6299 31.9042 27.7402 36.2949 34.0439 36.2949C40.3477 36.2949 45.458 31.9042 45.458 26.4883C45.458 21.0724 40.3477 16.6816 34.0439 16.6816ZM113.609 20.0811C112.727 17.1385 109.906 15.385 107.307 16.1641C104.708 16.9433 103.316 19.9606 104.198 22.9033C105.081 25.8456 107.902 27.5992 110.501 26.8203C113.1 26.0411 114.492 23.0237 113.609 20.0811Z" fill="#FFF414"/>
<path d="M43.418 3L45.5313 0.870697L44.654 0H43.418V3ZM52.0488 6.39355L52.0488 9.39355H52.0488V6.39355ZM60.6807 3V0H59.4446L58.5673 0.870789L60.6807 3ZM74.4482 3L77.4297 2.66736L77.1322 0H74.4482V3ZM85.8086 11.8594V14.8594H85.8086L85.8086 11.8594ZM97.168 3V0H94.4841L94.1865 2.66733L97.168 3ZM130.679 3H133.679V0H130.679V3ZM130.679 77.0869L131.294 80.0231L133.679 79.5232V77.0869H130.679ZM121.979 86.6123H118.979H121.979ZM130.679 96.1367H133.679V93.7004L131.294 93.2005L130.679 96.1367ZM130.679 128.589V131.589H133.679V128.589H130.679ZM103.141 128.589L100.427 129.868L101.239 131.589H103.141V128.589ZM92.5605 122.462L92.5606 119.462H92.5605V122.462ZM81.9795 128.589V131.589H83.8816L84.6929 129.868L81.9795 128.589ZM3 128.589H0V131.589H3V128.589ZM3 115.003L1.36081 112.49L0 113.378V115.003H3ZM7.51855 107.189H10.5186V107.189L7.51855 107.189ZM3 99.375H0V101L1.36094 101.888L3 99.375ZM3 63.8809L1.36074 61.3683L0 62.2561V63.8809H3ZM7.51855 56.0684L10.5186 56.0685V56.0684H7.51855ZM3 48.2539H0V49.8788L1.36089 50.7665L3 48.2539ZM3 3V0H0V3H3ZM111.71 103.782L114.098 101.966L114.098 101.966L111.71 103.782ZM103.976 103.625L102.159 101.237L102.159 101.237L103.976 103.625ZM102.062 111.12L99.6746 112.936L99.6747 112.936L102.062 111.12ZM109.797 111.278L111.613 113.666L111.613 113.666L109.797 111.278ZM59.5605 81.5859L61.4473 79.2535L61.4472 79.2534L59.5605 81.5859ZM44.5801 84.7686L42.2477 82.8818L42.2476 82.8818L44.5801 84.7686ZM44.5977 100.084L42.7109 102.416L42.7109 102.416L44.5977 100.084ZM59.5781 96.9014L61.9105 98.7881L61.9106 98.7881L59.5781 96.9014ZM95.1328 55.5859L95.1329 52.5859H95.1328V55.5859ZM86.291 64.1064H83.291V64.1066L86.291 64.1064ZM95.1328 72.626V75.626H95.1329L95.1328 72.626ZM103.975 64.1064L106.975 64.1066V64.1064H103.975ZM78.1592 44.624L81.0328 43.7625L81.0328 43.7625L78.1592 44.624ZM73 41.1074L72.1385 38.2338L72.1384 38.2338L73 41.1074ZM70.626 46.8828L67.7524 47.7444L67.7524 47.7445L70.626 46.8828ZM75.7852 50.3984L76.6464 53.2722L76.6467 53.2721L75.7852 50.3984ZM34.0439 16.6816L34.0439 13.6816H34.0439V16.6816ZM22.6299 26.4883H19.6299V26.4883L22.6299 26.4883ZM34.0439 36.2949V39.2949H34.0439L34.0439 36.2949ZM45.458 26.4883L48.458 26.4883V26.4883H45.458ZM113.609 20.0811L116.483 19.2195L116.483 19.2194L113.609 20.0811ZM107.307 16.1641L106.445 13.2904L106.445 13.2904L107.307 16.1641ZM104.198 22.9033L101.325 23.7649L101.325 23.7651L104.198 22.9033ZM110.501 26.8203L111.362 29.694L111.363 29.6939L110.501 26.8203ZM43.418 3L41.3047 5.1293C43.9859 7.79041 47.8465 9.3935 52.0488 9.39355L52.0488 6.39355L52.0489 3.39355C49.3539 3.39352 47.0357 2.36386 45.5313 0.870697L43.418 3ZM52.0488 6.39355V9.39355C56.2511 9.39355 60.1125 7.79084 62.7941 5.12921L60.6807 3L58.5673 0.870789C57.063 2.36387 54.7444 3.39355 52.0488 3.39355V6.39355ZM60.6807 3V6H74.4482V3V0H60.6807V3ZM74.4482 3L71.4667 3.33264C72.2276 10.1526 78.7053 14.8594 85.8086 14.8594V11.8594V8.85938C81.0483 8.85938 77.7782 5.79021 77.4297 2.66736L74.4482 3ZM85.8086 11.8594L85.8086 14.8594C92.9122 14.8593 99.3886 10.1523 100.149 3.33267L97.168 3L94.1865 2.66733C93.838 5.79043 90.5684 8.85934 85.8086 8.85938L85.8086 11.8594ZM97.168 3V6H130.679V3V0H97.168V3ZM130.679 3H127.679V77.0869H130.679H133.679V3H130.679ZM130.679 77.0869L130.063 74.1507C124.022 75.4171 118.979 80.2588 118.979 86.6123H121.979H124.979C124.979 83.7416 127.349 80.85 131.294 80.0231L130.679 77.0869ZM121.979 86.6123H118.979C118.979 92.9661 124.022 97.8065 130.063 99.0729L130.679 96.1367L131.294 93.2005C127.349 92.3735 124.979 89.4826 124.979 86.6123H121.979ZM130.679 96.1367H127.679V128.589H130.679H133.679V96.1367H130.679ZM130.679 128.589V125.589H103.141V128.589V131.589H130.679V128.589ZM103.141 128.589L105.854 127.309C103.602 122.533 98.3554 119.462 92.5606 119.462L92.5605 122.462L92.5605 125.462C96.3431 125.462 99.2913 127.46 100.427 129.868L103.141 128.589ZM92.5605 122.462V119.462C86.7658 119.462 81.5184 122.533 79.2661 127.309L81.9795 128.589L84.6929 129.868C85.8287 127.46 88.7775 125.462 92.5605 125.462V122.462ZM81.9795 128.589V125.589H3V128.589V131.589H81.9795V128.589ZM3 128.589H6V115.003H3H0V128.589H3ZM3 115.003L4.63919 117.516C8.08582 115.267 10.5186 111.557 10.5186 107.189H7.51855H4.51855C4.51855 109.201 3.40437 111.157 1.36081 112.49L3 115.003ZM7.51855 107.189L10.5186 107.189C10.5185 102.822 8.08654 99.1112 4.63906 96.8623L3 99.375L1.36094 101.888C3.4042 103.221 4.51854 105.177 4.51855 107.189L7.51855 107.189ZM3 99.375H6V63.8809H3H0V99.375H3ZM3 63.8809L4.63926 66.3934C8.08529 64.1451 10.5184 60.4361 10.5186 56.0685L7.51855 56.0684L4.51855 56.0682C4.51847 58.0797 3.40441 60.035 1.36074 61.3683L3 63.8809ZM7.51855 56.0684H10.5186C10.5186 51.701 8.08639 47.9901 4.63911 45.7413L3 48.2539L1.36089 50.7665C3.40417 52.0995 4.51855 54.0559 4.51855 56.0684H7.51855ZM3 48.2539H6V3H3H0V48.2539H3ZM3 3V6H43.418V3V0H3V3ZM111.71 103.782L114.098 101.966C111.117 98.0478 105.597 98.6226 102.159 101.237L103.976 103.625L105.792 106.013C106.625 105.379 107.504 105.137 108.178 105.151C108.846 105.164 109.175 105.405 109.322 105.598L111.71 103.782ZM103.976 103.625L102.159 101.237C98.7218 103.852 96.6948 109.018 99.6746 112.936L102.062 111.12L104.45 109.304C104.303 109.111 104.159 108.729 104.324 108.082C104.491 107.428 104.959 106.646 105.792 106.013L103.976 103.625ZM102.062 111.12L99.6747 112.936C102.655 116.854 108.175 116.281 111.613 113.666L109.797 111.278L107.981 108.89C107.148 109.524 106.269 109.766 105.595 109.752C104.927 109.739 104.597 109.497 104.45 109.304L102.062 111.12ZM109.797 111.278L111.613 113.666C115.051 111.051 117.078 105.884 114.098 101.966L111.71 103.782L109.322 105.598C109.469 105.792 109.614 106.174 109.448 106.821C109.282 107.475 108.814 108.257 107.981 108.891L109.797 111.278ZM59.5605 81.5859L61.4472 79.2534C55.5843 74.5112 47.0327 76.9666 42.2477 82.8818L44.5801 84.7686L46.9125 86.6553C50.3913 82.3549 55.2535 81.9607 57.6739 83.9184L59.5605 81.5859ZM44.5801 84.7686L42.2476 82.8818C37.4626 88.7973 36.8479 97.6737 42.7109 102.416L44.5977 100.084L46.4844 97.7516C44.0641 95.7937 43.4337 90.956 46.9125 86.6553L44.5801 84.7686ZM44.5977 100.084L42.7109 102.416C48.5739 107.159 57.1255 104.703 61.9105 98.7881L59.5781 96.9014L57.2457 95.0146C53.7668 99.3152 48.9047 99.7094 46.4844 97.7515L44.5977 100.084ZM59.5781 96.9014L61.9106 98.7881C66.6956 92.8727 67.3104 83.9962 61.4473 79.2535L59.5605 81.5859L57.6738 83.9184C60.0941 85.8762 60.7246 90.7138 57.2457 95.0147L59.5781 96.9014ZM95.1328 55.5859V52.5859C88.6984 52.5859 83.291 57.6403 83.291 64.1064H86.291H89.291C89.291 61.1614 91.8009 58.5859 95.1328 58.5859V55.5859ZM86.291 64.1064L83.291 64.1066C83.2914 70.5727 88.6988 75.626 95.1328 75.626V72.626V69.626C91.8008 69.626 89.2912 67.051 89.291 64.1063L86.291 64.1064ZM95.1328 72.626L95.1329 75.626C101.567 75.6258 106.974 70.5727 106.975 64.1066L103.975 64.1064L100.975 64.1063C100.974 67.0508 98.4648 69.6259 95.1327 69.626L95.1328 72.626ZM103.975 64.1064H106.975C106.975 57.6403 101.567 52.5861 95.1329 52.5859L95.1328 55.5859L95.1327 58.5859C98.4647 58.586 100.975 61.1615 100.975 64.1064H103.975ZM78.1592 44.624L81.0328 43.7625C79.9655 40.2028 76.3398 36.9743 72.1385 38.2338L73 41.1074L73.8615 43.9811C73.8876 43.9732 74.058 43.9282 74.3815 44.1487C74.7112 44.3735 75.0858 44.8194 75.2856 45.4856L78.1592 44.624ZM73 41.1074L72.1384 38.2338C67.9375 39.4933 66.6849 44.1842 67.7524 47.7444L70.626 46.8828L73.4996 46.0212C73.2999 45.3553 73.3674 44.7768 73.5192 44.4075C73.6681 44.0452 73.8354 43.9889 73.8616 43.981L73 41.1074ZM70.626 46.8828L67.7524 47.7445C68.8201 51.3049 72.4463 54.5309 76.6464 53.2722L75.7852 50.3984L74.9239 47.5247C74.8973 47.5327 74.7267 47.5775 74.4033 47.3572C74.0737 47.1326 73.6992 46.687 73.4996 46.0211L70.626 46.8828ZM75.7852 50.3984L76.6467 53.2721C80.8473 52.0126 82.1003 47.3231 81.0328 43.7625L78.1592 44.624L75.2855 45.4855C75.4852 46.1516 75.4177 46.7297 75.266 47.0986C75.1172 47.4605 74.9501 47.5169 74.9236 47.5248L75.7852 50.3984ZM34.0439 16.6816V13.6816C26.5268 13.6816 19.6299 19.0044 19.6299 26.4883H22.6299H25.6299C25.6299 23.1403 28.9537 19.6816 34.0439 19.6816V16.6816ZM22.6299 26.4883L19.6299 26.4883C19.6299 33.9721 26.5268 39.2949 34.0439 39.2949V36.2949V33.2949C28.9537 33.2949 25.6299 29.8362 25.6299 26.4883L22.6299 26.4883ZM34.0439 36.2949L34.0439 39.2949C41.5611 39.2949 48.458 33.9721 48.458 26.4883L45.458 26.4883L42.458 26.4883C42.458 29.8362 39.1342 33.2949 34.0439 33.2949L34.0439 36.2949ZM45.458 26.4883H48.458C48.458 19.0044 41.5611 13.6816 34.0439 13.6816L34.0439 16.6816L34.0439 19.6816C39.1342 19.6816 42.458 23.1403 42.458 26.4883H45.458ZM113.609 20.0811L116.483 19.2194C115.229 15.0357 110.956 11.9381 106.445 13.2904L107.307 16.1641L108.168 19.0377C108.855 18.8318 110.226 19.2413 110.736 20.9427L113.609 20.0811ZM107.307 16.1641L106.445 13.2904C101.934 14.643 100.07 19.581 101.325 23.7649L104.198 22.9033L107.072 22.0417C106.562 20.3403 107.481 19.2436 108.168 19.0377L107.307 16.1641ZM104.198 22.9033L101.325 23.7651C102.579 27.9483 106.851 31.046 111.362 29.694L110.501 26.8203L109.64 23.9466C108.953 24.1525 107.582 23.7428 107.072 22.0415L104.198 22.9033ZM110.501 26.8203L111.363 29.6939C115.874 28.3414 117.737 23.4033 116.483 19.2195L113.609 20.0811L110.736 20.9426C111.246 22.6441 110.326 23.7407 109.639 23.9467L110.501 26.8203Z" fill="black"/>
</svg>
