<svg width="119" height="107" viewBox="0 0 119 107" fill="none" xmlns="http://www.w3.org/2000/svg">
<path d="M59.5 6C89.663 6 113 27.8504 113 53.5C113 79.1496 89.663 101 59.5 101C29.337 101 6 79.1496 6 53.5C6 27.8504 29.337 6 59.5 6Z" fill="#EB5C58" stroke="black" stroke-width="12"/>
<path d="M59.5 31C73.9975 31 85 41.4663 85 53.5C85 65.5337 73.9975 76 59.5 76C45.0025 76 34 65.5337 34 53.5C34 41.4663 45.0025 31 59.5 31Z" fill="#F099B9" stroke="black" stroke-width="8"/>
<ellipse cx="52.5" cy="61" rx="7.5" ry="6" fill="#F1E4AF"/>
<ellipse cx="65.1833" cy="46.9823" rx="8.10746" ry="6.4452" transform="rotate(-66.9824 65.1833 46.9823)" fill="#F1E4AF"/>
<path d="M40.5002 60.5C31.9419 45.6152 27.5002 18.5 27.5002 18.5C27.5002 18.5 -6.49968 40 10.5002 72C27.5 104 78.5002 98 78.5002 98C78.5002 98 50.8924 78.5746 40.5002 60.5Z" fill="black" fill-opacity="0.25"/>
</svg>
