<svg width="225" height="205" viewBox="0 0 225 205" fill="none" xmlns="http://www.w3.org/2000/svg">
<path d="M6.40995 49.0829C-8.85108 73.8624 26.0926 91.108 29.149 120.049C31.7651 144.82 10.3878 163.291 24.7008 183.677C36.8564 200.99 94.7592 169.013 115.893 169.946C137.026 170.879 205.439 212.262 214.547 195.546C223.655 178.829 204.369 166.798 204.878 147.768C205.459 126.039 227.432 114.996 220.579 94.3685C213.201 72.1592 186.658 78.2411 170.752 61.0749C153.895 42.883 163.333 14.6965 140.381 5.29963C114.509 -5.2924 101.139 24.7865 74.5478 33.415C48.5769 41.8422 20.7281 25.8344 6.40995 49.0829Z" fill="#6CB48C" stroke="black" stroke-width="4"/>
<path d="M114.893 169.971L116.817 84.8985M58.1032 97.3354L78.9023 109.331M53.1064 158.976L80.5499 176.811M151.466 111.06L182.457 110.304M137.46 172.421L178.264 163.922" stroke="black" stroke-opacity="0.25" stroke-width="3" stroke-linecap="round"/>
<path d="M48.9965 113.563C39.3282 96.5435 28.1104 36.5494 28.1104 36.5494L8.3116 45.0352L1.77748 64.2005L12.2505 83.4505L26.7711 104.602L30.2706 125.023L19.4215 172.302L28.8216 188.577L44.8168 188.187L106.895 170.166C106.895 170.166 58.6648 130.582 48.9965 113.563Z" fill="black" fill-opacity="0.25"/>
</svg>
