<svg width="474" height="276" viewBox="0 0 474 276" fill="none" xmlns="http://www.w3.org/2000/svg">
<path d="M23.9391 134.644C20.6532 163.56 59.6133 164.324 74.6773 189.223C87.5708 210.535 76.0676 236.339 97.6864 248.711C116.046 259.219 154.875 205.67 174.403 197.534C193.93 189.399 273.444 197.792 274.586 178.789C275.728 159.787 253.157 157.09 245.532 139.647C236.825 119.73 252.024 100.398 237.055 84.6366C220.939 67.6671 199.496 84.4507 177.803 75.67C154.813 66.3647 151.381 36.8386 126.611 38.0848C98.6905 39.4895 99.3676 72.3993 78.9627 91.5088C59.0337 110.173 27.022 107.515 23.9391 134.644Z" fill="#6CB48C" stroke="black" stroke-width="4"/>
<path d="M173.508 197.981L139.102 120.153M91.2364 156.359L115.162 158.381M112.904 214.282L145.326 218.766M181.584 129.113L209.316 115.26M194.977 190.61L228.304 165.579" stroke="black" stroke-opacity="0.25" stroke-width="3" stroke-linecap="round"/>
<path d="M89.8878 174.918C73.9042 163.62 38.2576 114.078 38.2576 114.078L23.9407 130.172L26.1692 150.297L43.8292 163.273L65.9614 176.251L77.8061 193.249L88.0742 240.658L103.499 251.397L117.813 244.247L166.351 201.556C166.351 201.556 105.871 186.216 89.8878 174.918Z" fill="black" fill-opacity="0.25"/>
<path d="M258.789 83.0815C242.492 107.192 276.674 125.903 278.501 154.947C280.065 179.807 257.925 197.355 271.361 218.329C282.772 236.142 341.978 206.648 363.053 208.475C384.128 210.303 450.726 254.548 460.534 238.232C470.342 221.916 451.583 209.078 452.898 190.087C454.399 168.403 476.82 158.301 470.847 137.401C464.417 114.899 437.64 119.851 422.475 102.026C406.404 83.1363 417.029 55.375 394.495 45.0141C369.096 33.3353 354.463 62.8207 327.53 70.3147C301.225 77.6339 274.08 60.4605 258.789 83.0815Z" fill="#6CB48C" stroke="black" stroke-width="4"/>
<path d="M362.053 208.457L367.58 123.543M308.392 133.481L328.664 146.347M300.788 194.854L327.451 213.836M401.089 151.15L432.084 151.707M384.496 211.861L425.624 205.099" stroke="black" stroke-opacity="0.25" stroke-width="3" stroke-linecap="round"/>
<path d="M298.606 149.308C289.667 131.894 281.001 71.4786 281.001 71.4786L260.861 79.1179L253.521 97.989L263.169 117.666L276.78 139.414L279.411 159.964L266.568 206.741L275.27 223.4L291.268 223.688L354.054 208.314C354.054 208.314 307.544 166.721 298.606 149.308Z" fill="black" fill-opacity="0.25"/>
</svg>
